<svg xmlns="http://www.w3.org/2000/svg" xmlns:xlink="http://www.w3.org/1999/xlink" xmlns:lucid="lucid" width="695" height="819"><g transform="translate(-625 -246)" lucid:page-tab-id="0_0"><path d="M0 0h1760v1360H0z" fill="#fff"/><path d="M1086.12 268.35c22.45 0 40.66 26.87 40.66 60 0 33.14-18.2 60-40.66 60H964.14c-22.46 0-40.66-26.86-40.66-60 0-33.13 18.2-60 40.66-60z" stroke="#000" stroke-opacity="0" fill="#007bff"/><use xlink:href="#a" transform="matrix(1,0,0,1,928.4790798959201,273.353624414282) translate(9.199999999999989 47.8)"/><use xlink:href="#b" transform="matrix(1,0,0,1,928.4790798959201,273.353624414282) translate(86.05 47.8)"/><use xlink:href="#c" transform="matrix(1,0,0,1,928.4790798959201,273.353624414282) translate(126.94999999999999 47.8)"/><use xlink:href="#d" transform="matrix(1,0,0,1,928.4790798959201,273.353624414282) translate(74 69.4)"/><path d="M1025.13 388.85v59.4c0 6.62-5.37 12-12 12h-45.48" stroke="#333" fill="none"/><path d="M1025.63 388.87h-1v-.52h1z" fill="#333"/><path d="M952.9 460.24l14.25-4.64v9.28z" stroke="#333" fill="#333"/><path d="M868.23 405.04c3.53-2.65 9.26-2.65 12.8 0l67.2 50.4c3.53 2.65 3.53 6.95 0 9.6l-67.2 50.4c-3.54 2.65-9.27 2.65-12.8 0l-67.2-50.4c-3.54-2.65-3.54-6.95 0-9.6z" stroke="#333" fill="#007bff"/><use xlink:href="#e" transform="matrix(1,0,0,1,799.6262661873011,405.2402068847912) translate(41.625 58.6)"/><path d="M1025.13 388.85v59.4c0 6.62 5.37 12 12 12h76.62" stroke="#333" fill="none"/><path d="M1025.63 388.87h-1v-.52h1z" fill="#333"/><path d="M1128.52 460.24l-14.27 4.64v-9.28z" stroke="#333" fill="#333"/><path d="M1200.38 405.04c3.53-2.65 9.26-2.65 12.8 0l67.2 50.4c3.53 2.65 3.53 6.95 0 9.6l-67.2 50.4c-3.54 2.65-9.27 2.65-12.8 0l-67.2-50.4c-3.54-2.65-3.54-6.95 0-9.6z" stroke="#333" fill="#007bff"/><use xlink:href="#f" transform="matrix(1,0,0,1,1131.7769390802036,405.2402068847912) translate(22.224999999999994 58.6)"/><path d="M832.32 489.64v67.72c0 6.63-5.37 12-12 12h-48.26c-6.63 0-12 5.38-12 12v51.85" stroke="#333" fill="none"/><path d="M832.82 489.5v.15h-1v-.9z" fill="#333"/><path d="M760.06 647.97l-4.64-14.26h9.27z" stroke="#333" fill="#333"/><path d="M915.67 490.58v63.57c0 6.63 5.37 12 12 12h63.8c6.64 0 12 5.38 12 12v47.7" stroke="#333" fill="none"/><path d="M916.17 490.6h-1v-.14l1-.75z" fill="#333"/><path d="M1003.48 640.6l-4.64-14.26h9.27z" stroke="#333" fill="#333"/><path d="M923.48 658.14c0-4.4 3.55-8.44 7.94-8.98l144.12-17.95c4.38-.53 7.94 2.6 7.94 7.02v104c0 4.42-3.58 8-8 8h-144c-4.42 0-8-3.58-8-8z" stroke="#333" fill="#007bff"/><use xlink:href="#g" transform="matrix(1,0,0,1,928.4790798959201,655.2243947934597) translate(2.625 27)"/><use xlink:href="#h" transform="matrix(1,0,0,1,928.4790798959201,655.2243947934597) translate(63.525000000000006 27)"/><use xlink:href="#i" transform="matrix(1,0,0,1,928.4790798959201,655.2243947934597) translate(34.12499999999999 48.6)"/><use xlink:href="#j" transform="matrix(1,0,0,1,928.4790798959201,655.2243947934597) translate(25.049999999999997 70.2)"/><path d="M674.44 670.37c0-4.42 3.52-8.66 7.87-9.47l155.5-29.2c4.35-.8 7.87 2.1 7.87 6.52V815.9c0 4.4-3.58 8-8 8H682.44c-4.4 0-8-3.6-8-8z" stroke="#333" fill="#007bff"/><use xlink:href="#k" transform="matrix(1,0,0,1,679.4441696272551,667.5015284252848) translate(10.099999999999994 25.6)"/><use xlink:href="#l" transform="matrix(1,0,0,1,679.4441696272551,667.5015284252848) translate(52 25.6)"/><use xlink:href="#m" transform="matrix(1,0,0,1,679.4441696272551,667.5015284252848) translate(11.149999999999991 47.2)"/><use xlink:href="#n" transform="matrix(1,0,0,1,679.4441696272551,667.5015284252848) translate(37.099999999999994 47.2)"/><use xlink:href="#o" transform="matrix(1,0,0,1,679.4441696272551,667.5015284252848) translate(126.95 47.2)"/><use xlink:href="#p" transform="matrix(1,0,0,1,679.4441696272551,667.5015284252848) translate(3.1999999999999886 68.80000000000001)"/><use xlink:href="#q" transform="matrix(1,0,0,1,679.4441696272551,667.5015284252848) translate(51.099999999999994 68.80000000000001)"/><use xlink:href="#r" transform="matrix(1,0,0,1,679.4441696272551,667.5015284252848) translate(88 68.80000000000001)"/><use xlink:href="#s" transform="matrix(1,0,0,1,679.4441696272551,667.5015284252848) translate(61.55 90.40000000000002)"/><use xlink:href="#t" transform="matrix(1,0,0,1,679.4441696272551,667.5015284252848) translate(18.17499999999999 112.00000000000001)"/><use xlink:href="#u" transform="matrix(1,0,0,1,679.4441696272551,667.5015284252848) translate(36.574999999999996 133.6)"/><path d="M1003.48 751.22V807" stroke="#333" fill="none"/><path d="M1003.98 751.24h-1v-.52h1z" fill="#333"/><path d="M1003.48 821.77l-4.64-14.27h9.27z" stroke="#333" fill="#333"/><path d="M933.48 831.9c0-4.43 3.58-8 8-8h124c4.42 0 8 3.57 8 8v61.76c0 4.42-2.88 10.13-6.43 12.76l-57.14 42.33c-3.54 2.63-9.3 2.63-12.85 0l-57.14-42.33c-3.54-2.63-6.42-8.34-6.42-12.76z" stroke="#333" fill="#007bff"/><use xlink:href="#v" transform="matrix(1,0,0,1,938.4790798959201,828.8871965844106) translate(37.05 42)"/><use xlink:href="#w" transform="matrix(1,0,0,1,938.4790798959201,828.8871965844106) translate(7.624999999999993 63.6)"/><use xlink:href="#x" transform="matrix(1,0,0,1,938.4790798959201,828.8871965844106) translate(90.475 63.6)"/><use xlink:href="#y" transform="matrix(1,0,0,1,938.4790798959201,828.8871965844106) translate(46.55 85.20000000000002)"/><path d="M760.06 824.9v25.78" stroke="#333" fill="none"/><path d="M760.56 824.9h-1v-.5h1z" fill="#333"/><path d="M760.06 865.44l-4.64-14.26h9.27z" stroke="#333" fill="#333"/><path d="M690.06 875.56c0-4.42 3.58-8 8-8h124c4.42 0 8 3.58 8 8v61.77c0 4.42-2.88 10.14-6.43 12.77l-57.14 42.32c-3.56 2.63-9.32 2.63-12.87 0L696.5 950.1c-3.56-2.63-6.44-8.35-6.44-12.77z" stroke="#333" fill="#007bff"/><g><use xlink:href="#z" transform="matrix(1,0,0,1,695.056855098922,872.5608080999026) translate(35.75 52.8)"/><use xlink:href="#A" transform="matrix(1,0,0,1,695.056855098922,872.5608080999026) translate(78.3 52.8)"/><use xlink:href="#B" transform="matrix(1,0,0,1,695.056855098922,872.5608080999026) translate(26.074999999999996 74.4)"/></g><path d="M1206.78 518.33v52.4" stroke="#333" fill="none"/><path d="M1207.28 517.83v.5h-1v-.5z" fill="#333"/><path d="M1206.78 585.5l-4.64-14.28h9.27z" stroke="#333" fill="#333"/><path d="M1126.78 603.03c0-4.42 3.55-8.45 7.94-9l144.12-17.94c4.38-.55 7.94 2.6 7.94 7v104c0 4.42-3.58 8-8 8h-144c-4.42 0-8-3.58-8-8z" stroke="#333" fill="#007bff"/><g><use xlink:href="#C" transform="matrix(1,0,0,1,1131.7769390802036,600.1066227027874) translate(2.625 27)"/><use xlink:href="#D" transform="matrix(1,0,0,1,1131.7769390802036,600.1066227027874) translate(63.525000000000006 27)"/><use xlink:href="#E" transform="matrix(1,0,0,1,1131.7769390802036,600.1066227027874) translate(34.12499999999999 48.6)"/><use xlink:href="#F" transform="matrix(1,0,0,1,1131.7769390802036,600.1066227027874) translate(25.049999999999997 70.2)"/></g><path d="M1206.78 696.1v37.24" stroke="#333" fill="none"/><path d="M1207.28 696.12h-1v-.5h1z" fill="#333"/><path d="M1206.78 748.1l-4.64-14.26h9.27z" stroke="#333" fill="#333"/><path d="M1136.78 758.22c0-4.4 3.58-8 8-8h124c4.42 0 8 3.6 8 8V820c0 4.42-2.88 10.13-6.43 12.76l-57.14 42.32c-3.54 2.63-9.3 2.63-12.85 0l-57.14-42.32c-3.54-2.63-6.42-8.34-6.42-12.76z" stroke="#333" fill="#007bff"/><g><use xlink:href="#v" transform="matrix(1,0,0,1,1141.7769390802036,755.2243947934597) translate(37.05 52.8)"/><use xlink:href="#G" transform="matrix(1,0,0,1,1141.7769390802036,755.2243947934597) translate(26.074999999999996 74.4)"/></g><defs><path fill="#fff" d="M240-174c0 40-23 61-54 70L253 0h-59l-57-94H76V0H24v-248c93 4 217-23 216 74zM76-134c48-2 112 12 112-38 0-48-66-32-112-35v73" id="H"/><path fill="#fff" d="M185-48c-13 30-37 53-82 52C43 2 14-33 14-96s30-98 90-98c62 0 83 45 84 108H66c0 31 8 55 39 56 18 0 30-7 34-22zm-45-69c5-46-57-63-70-21-2 6-4 13-4 21h74" id="I"/><path fill="#fff" d="M195-6C206 82 75 100 31 46c-4-6-6-13-8-21l49-6c3 16 16 24 34 25 40 0 42-37 40-79-11 22-30 35-61 35-53 0-70-43-70-97 0-56 18-96 73-97 30 0 46 14 59 34l2-30h47zm-90-29c32 0 41-27 41-63 0-35-9-62-40-62-32 0-39 29-40 63 0 36 9 62 39 62" id="J"/><path fill="#fff" d="M25-224v-37h50v37H25zM25 0v-190h50V0H25" id="K"/><path fill="#fff" d="M137-138c1-29-70-34-71-4 15 46 118 7 119 86 1 83-164 76-172 9l43-7c4 19 20 25 44 25 33 8 57-30 24-41C81-84 22-81 20-136c-2-80 154-74 161-7" id="L"/><path fill="#fff" d="M115-3C79 11 28 4 28-45v-112H4v-33h27l15-45h31v45h36v33H77v99c-1 23 16 31 38 25v30" id="M"/><path fill="#fff" d="M135-150c-39-12-60 13-60 57V0H25l-1-190h47c2 13-1 29 3 40 6-28 27-53 61-41v41" id="N"/><g id="a"><use transform="matrix(0.05,0,0,0.05,0,0)" xlink:href="#H"/><use transform="matrix(0.05,0,0,0.05,12.950000000000001,0)" xlink:href="#I"/><use transform="matrix(0.05,0,0,0.05,22.950000000000003,0)" xlink:href="#J"/><use transform="matrix(0.05,0,0,0.05,33.900000000000006,0)" xlink:href="#K"/><use transform="matrix(0.05,0,0,0.05,38.900000000000006,0)" xlink:href="#L"/><use transform="matrix(0.05,0,0,0.05,48.900000000000006,0)" xlink:href="#M"/><use transform="matrix(0.05,0,0,0.05,54.85,0)" xlink:href="#I"/><use transform="matrix(0.05,0,0,0.05,64.85000000000001,0)" xlink:href="#N"/></g><path fill="#fff" d="M231 0h-52l-39-155L100 0H48L-1-190h46L77-45c9-52 24-97 36-145h53l37 145 32-145h46" id="O"/><path fill="#fff" d="M114-157C55-157 80-60 75 0H25v-261h50l-1 109c12-26 28-41 61-42 86-1 58 113 63 194h-50c-7-57 23-157-34-157" id="P"/><g id="b"><use transform="matrix(0.05,0,0,0.05,0,0)" xlink:href="#O"/><use transform="matrix(0.05,0,0,0.05,14,0)" xlink:href="#K"/><use transform="matrix(0.05,0,0,0.05,19,0)" xlink:href="#M"/><use transform="matrix(0.05,0,0,0.05,24.95,0)" xlink:href="#P"/></g><path fill="#fff" d="M190-63c-7 42-38 67-86 67-59 0-84-38-90-98-12-110 154-137 174-36l-49 2c-2-19-15-32-35-32-30 0-35 28-38 64-6 74 65 87 74 30" id="Q"/><path fill="#fff" d="M110-194c64 0 96 36 96 99 0 64-35 99-97 99-61 0-95-36-95-99 0-62 34-99 96-99zm-1 164c35 0 45-28 45-65 0-40-10-65-43-65-34 0-45 26-45 65 0 36 10 65 43 65" id="R"/><path fill="#fff" d="M25 0v-261h50V0H25" id="S"/><g id="c"><use transform="matrix(0.05,0,0,0.05,0,0)" xlink:href="#L"/><use transform="matrix(0.05,0,0,0.05,10,0)" xlink:href="#Q"/><use transform="matrix(0.05,0,0,0.05,20,0)" xlink:href="#P"/><use transform="matrix(0.05,0,0,0.05,30.950000000000003,0)" xlink:href="#R"/><use transform="matrix(0.05,0,0,0.05,41.900000000000006,0)" xlink:href="#R"/><use transform="matrix(0.05,0,0,0.05,52.85,0)" xlink:href="#S"/></g><path fill="#fff" d="M220-157c-53 9-28 100-34 157h-49v-107c1-27-5-49-29-50C55-147 81-57 75 0H25l-1-190h47c2 12-1 28 3 38 10-53 101-56 108 0 13-22 24-43 59-42 82 1 51 116 57 194h-49v-107c-1-25-5-48-29-50" id="T"/><path fill="#fff" d="M133-34C117-15 103 5 69 4 32 3 11-16 11-54c-1-60 55-63 116-61 1-26-3-47-28-47-18 1-26 9-28 27l-52-2c7-38 36-58 82-57s74 22 75 68l1 82c-1 14 12 18 25 15v27c-30 8-71 5-69-32zm-48 3c29 0 43-24 42-57-32 0-66-3-65 30 0 17 8 27 23 27" id="U"/><g id="d"><use transform="matrix(0.05,0,0,0.05,0,0)" xlink:href="#I"/><use transform="matrix(0.05,0,0,0.05,10,0)" xlink:href="#T"/><use transform="matrix(0.05,0,0,0.05,26,0)" xlink:href="#U"/><use transform="matrix(0.05,0,0,0.05,36,0)" xlink:href="#K"/><use transform="matrix(0.05,0,0,0.05,41,0)" xlink:href="#S"/></g><path fill="#fafafa" d="M169-182c-1-43-94-46-97-3 18 66 151 10 154 114 3 95-165 93-204 36-6-8-10-19-12-30l50-8c3 46 112 56 116 5-17-69-150-10-154-114-4-87 153-88 188-35 5 8 8 18 10 28" id="V"/><path fill="#fafafa" d="M115-3C79 11 28 4 28-45v-112H4v-33h27l15-45h31v45h36v33H77v99c-1 23 16 31 38 25v30" id="W"/><path fill="#fafafa" d="M85 4C-2 5 27-109 22-190h50c7 57-23 150 33 157 60-5 35-97 40-157h50l1 190h-47c-2-12 1-28-3-38-12 25-28 42-61 42" id="X"/><path fill="#fafafa" d="M88-194c31-1 46 15 58 34l-1-101h50l1 261h-48c-2-10 0-23-3-31C134-8 116 4 84 4 32 4 16-41 15-95c0-56 19-97 73-99zm17 164c33 0 40-30 41-66 1-37-9-64-41-64s-38 30-39 65c0 43 13 65 39 65" id="Y"/><path fill="#fafafa" d="M185-48c-13 30-37 53-82 52C43 2 14-33 14-96s30-98 90-98c62 0 83 45 84 108H66c0 31 8 55 39 56 18 0 30-7 34-22zm-45-69c5-46-57-63-70-21-2 6-4 13-4 21h74" id="Z"/><path fill="#fafafa" d="M135-194c87-1 58 113 63 194h-50c-7-57 23-157-34-157-59 0-34 97-39 157H25l-1-190h47c2 12-1 28 3 38 12-26 28-41 61-42" id="aa"/><g id="e"><use transform="matrix(0.05,0,0,0.05,0,0)" xlink:href="#V"/><use transform="matrix(0.05,0,0,0.05,12,0)" xlink:href="#W"/><use transform="matrix(0.05,0,0,0.05,17.95,0)" xlink:href="#X"/><use transform="matrix(0.05,0,0,0.05,28.899999999999995,0)" xlink:href="#Y"/><use transform="matrix(0.05,0,0,0.05,39.85,0)" xlink:href="#Z"/><use transform="matrix(0.05,0,0,0.05,49.85,0)" xlink:href="#aa"/><use transform="matrix(0.05,0,0,0.05,60.800000000000004,0)" xlink:href="#W"/></g><path fill="#fff" d="M175 0L67-191c6 58 2 128 3 191H24v-248h59L193-55c-6-58-2-129-3-193h46V0h-61" id="ab"/><path fill="#fff" d="M135-194c87-1 58 113 63 194h-50c-7-57 23-157-34-157-59 0-34 97-39 157H25l-1-190h47c2 12-1 28 3 38 12-26 28-41 61-42" id="ac"/><path fill="#fff" d="M14-72v-43h91v43H14" id="ad"/><path fill="#fff" d="M85 4C-2 5 27-109 22-190h50c7 57-23 150 33 157 60-5 35-97 40-157h50l1 190h-47c-2-12 1-28-3-38-12 25-28 42-61 42" id="ae"/><path fill="#fff" d="M88-194c31-1 46 15 58 34l-1-101h50l1 261h-48c-2-10 0-23-3-31C134-8 116 4 84 4 32 4 16-41 15-95c0-56 19-97 73-99zm17 164c33 0 40-30 41-66 1-37-9-64-41-64s-38 30-39 65c0 43 13 65 39 65" id="af"/><g id="f"><use transform="matrix(0.05,0,0,0.05,0,0)" xlink:href="#ab"/><use transform="matrix(0.05,0,0,0.05,12.950000000000001,0)" xlink:href="#R"/><use transform="matrix(0.05,0,0,0.05,23.900000000000002,0)" xlink:href="#ac"/><use transform="matrix(0.05,0,0,0.05,34.85,0)" xlink:href="#ad"/><use transform="matrix(0.05,0,0,0.05,40.800000000000004,0)" xlink:href="#L"/><use transform="matrix(0.05,0,0,0.05,50.800000000000004,0)" xlink:href="#M"/><use transform="matrix(0.05,0,0,0.05,56.75,0)" xlink:href="#ae"/><use transform="matrix(0.05,0,0,0.05,67.7,0)" xlink:href="#af"/><use transform="matrix(0.05,0,0,0.05,78.65,0)" xlink:href="#I"/><use transform="matrix(0.05,0,0,0.05,88.65,0)" xlink:href="#ac"/><use transform="matrix(0.05,0,0,0.05,99.60000000000001,0)" xlink:href="#M"/></g><path fill="#fafafa" d="M67-125c0 53 21 87 73 88 37 1 54-22 65-47l45 17C233-25 199 4 140 4 58 4 20-42 15-125 8-235 124-281 211-232c18 10 29 29 36 50l-46 12c-8-25-30-41-62-41-52 0-71 34-72 86" id="ag"/><path fill="#fafafa" d="M135-150c-39-12-60 13-60 57V0H25l-1-190h47c2 13-1 29 3 40 6-28 27-53 61-41v41" id="ah"/><path fill="#fafafa" d="M133-34C117-15 103 5 69 4 32 3 11-16 11-54c-1-60 55-63 116-61 1-26-3-47-28-47-18 1-26 9-28 27l-52-2c7-38 36-58 82-57s74 22 75 68l1 82c-1 14 12 18 25 15v27c-30 8-71 5-69-32zm-48 3c29 0 43-24 42-57-32 0-66-3-65 30 0 17 8 27 23 27" id="ai"/><g id="g"><use transform="matrix(0.05,0,0,0.05,0,0)" xlink:href="#ag"/><use transform="matrix(0.05,0,0,0.05,12.950000000000001,0)" xlink:href="#ah"/><use transform="matrix(0.05,0,0,0.05,19.950000000000003,0)" xlink:href="#Z"/><use transform="matrix(0.05,0,0,0.05,29.950000000000003,0)" xlink:href="#ai"/><use transform="matrix(0.05,0,0,0.05,39.95,0)" xlink:href="#W"/><use transform="matrix(0.05,0,0,0.05,45.900000000000006,0)" xlink:href="#Z"/></g><path fill="#fafafa" d="M135-194c53 0 70 44 70 98 0 56-19 98-73 100-31 1-45-17-59-34 3 33 2 69 2 105H25l-1-265h48c2 10 0 23 3 31 11-24 29-35 60-35zM114-30c33 0 39-31 40-66 0-38-9-64-40-64-56 0-55 130 0 130" id="aj"/><path fill="#fafafa" d="M137-138c1-29-70-34-71-4 15 46 118 7 119 86 1 83-164 76-172 9l43-7c4 19 20 25 44 25 33 8 57-30 24-41C81-84 22-81 20-136c-2-80 154-74 161-7" id="ak"/><path fill="#fafafa" d="M231 0h-52l-39-155L100 0H48L-1-190h46L77-45c9-52 24-97 36-145h53l37 145 32-145h46" id="al"/><path fill="#fafafa" d="M110-194c64 0 96 36 96 99 0 64-35 99-97 99-61 0-95-36-95-99 0-62 34-99 96-99zm-1 164c35 0 45-28 45-65 0-40-10-65-43-65-34 0-45 26-45 65 0 36 10 65 43 65" id="am"/><g id="h"><use transform="matrix(0.05,0,0,0.05,0,0)" xlink:href="#aj"/><use transform="matrix(0.05,0,0,0.05,10.950000000000001,0)" xlink:href="#ai"/><use transform="matrix(0.05,0,0,0.05,20.950000000000003,0)" xlink:href="#ak"/><use transform="matrix(0.05,0,0,0.05,30.950000000000003,0)" xlink:href="#ak"/><use transform="matrix(0.05,0,0,0.05,40.95,0)" xlink:href="#al"/><use transform="matrix(0.05,0,0,0.05,54.95,0)" xlink:href="#am"/><use transform="matrix(0.05,0,0,0.05,65.9,0)" xlink:href="#ah"/><use transform="matrix(0.05,0,0,0.05,72.9,0)" xlink:href="#Y"/></g><path fill="#fafafa" d="M190-63c-7 42-38 67-86 67-59 0-84-38-90-98-12-110 154-137 174-36l-49 2c-2-19-15-32-35-32-30 0-35 28-38 64-6 74 65 87 74 30" id="an"/><g id="i"><use transform="matrix(0.05,0,0,0.05,0,0)" xlink:href="#aj"/><use transform="matrix(0.05,0,0,0.05,10.950000000000001,0)" xlink:href="#ah"/><use transform="matrix(0.05,0,0,0.05,17.950000000000003,0)" xlink:href="#am"/><use transform="matrix(0.05,0,0,0.05,28.900000000000006,0)" xlink:href="#W"/><use transform="matrix(0.05,0,0,0.05,34.85000000000001,0)" xlink:href="#Z"/><use transform="matrix(0.05,0,0,0.05,44.85000000000001,0)" xlink:href="#an"/><use transform="matrix(0.05,0,0,0.05,54.85,0)" xlink:href="#W"/><use transform="matrix(0.05,0,0,0.05,60.80000000000001,0)" xlink:href="#Z"/><use transform="matrix(0.05,0,0,0.05,70.80000000000001,0)" xlink:href="#Y"/></g><path fill="#fafafa" d="M25 0v-261h50V0H25" id="ao"/><path fill="#fafafa" d="M220-157c-53 9-28 100-34 157h-49v-107c1-27-5-49-29-50C55-147 81-57 75 0H25l-1-190h47c2 12-1 28 3 38 10-53 101-56 108 0 13-22 24-43 59-42 82 1 51 116 57 194h-49v-107c-1-25-5-48-29-50" id="ap"/><g id="j"><use transform="matrix(0.05,0,0,0.05,0,0)" xlink:href="#an"/><use transform="matrix(0.05,0,0,0.05,10,0)" xlink:href="#ao"/><use transform="matrix(0.05,0,0,0.05,15,0)" xlink:href="#ai"/><use transform="matrix(0.05,0,0,0.05,25,0)" xlink:href="#ak"/><use transform="matrix(0.05,0,0,0.05,35,0)" xlink:href="#ak"/><use transform="matrix(0.05,0,0,0.05,45,0)" xlink:href="#ah"/><use transform="matrix(0.05,0,0,0.05,52,0)" xlink:href="#am"/><use transform="matrix(0.05,0,0,0.05,62.95,0)" xlink:href="#am"/><use transform="matrix(0.05,0,0,0.05,73.9,0)" xlink:href="#ap"/><use transform="matrix(0.05,0,0,0.05,89.9,0)" xlink:href="#ak"/></g><path fill="#fafafa" d="M176-78C186 10 51 31 16-35c-5-9-9-19-11-32l52-8c4 21 12 37 35 38 23 0 32-16 32-40v-130H75v-41h101v170" id="aq"/><path fill="#fafafa" d="M25-224v-37h50v37H25zM25 0v-190h50V0H25" id="ar"/><g id="k"><use transform="matrix(0.05,0,0,0.05,0,0)" xlink:href="#aq"/><use transform="matrix(0.05,0,0,0.05,10,0)" xlink:href="#am"/><use transform="matrix(0.05,0,0,0.05,20.950000000000003,0)" xlink:href="#ar"/><use transform="matrix(0.05,0,0,0.05,25.950000000000003,0)" xlink:href="#aa"/></g><g id="l"><use transform="matrix(0.05,0,0,0.05,0,0)" xlink:href="#an"/><use transform="matrix(0.05,0,0,0.05,10,0)" xlink:href="#ao"/><use transform="matrix(0.05,0,0,0.05,15,0)" xlink:href="#ai"/><use transform="matrix(0.05,0,0,0.05,25,0)" xlink:href="#ak"/><use transform="matrix(0.05,0,0,0.05,35,0)" xlink:href="#ak"/><use transform="matrix(0.05,0,0,0.05,45,0)" xlink:href="#ah"/><use transform="matrix(0.05,0,0,0.05,52,0)" xlink:href="#am"/><use transform="matrix(0.05,0,0,0.05,62.95,0)" xlink:href="#am"/><use transform="matrix(0.05,0,0,0.05,73.9,0)" xlink:href="#ap"/><use transform="matrix(0.05,0,0,0.05,89.9,0)" xlink:href="#ak"/></g><path fill="#fafafa" d="M135-194c52 0 70 43 70 98 0 56-19 99-73 100-30 1-46-15-58-35L72 0H24l1-261h50v104c11-23 29-37 60-37zM114-30c31 0 40-27 40-66 0-37-7-63-39-63s-41 28-41 65c0 36 8 64 40 64" id="as"/><path fill="#fafafa" d="M123 10C108 53 80 86 19 72V37c35 8 53-11 59-39L3-190h52l48 148c12-52 28-100 44-148h51" id="at"/><g id="m"><use transform="matrix(0.05,0,0,0.05,0,0)" xlink:href="#as"/><use transform="matrix(0.05,0,0,0.05,10.950000000000001,0)" xlink:href="#at"/></g><path fill="#fafafa" d="M114-157C55-157 80-60 75 0H25v-261h50l-1 109c12-26 28-41 61-42 86-1 58 113 63 194h-50c-7-57 23-157-34-157" id="au"/><path fill="#fafafa" d="M195-6C206 82 75 100 31 46c-4-6-6-13-8-21l49-6c3 16 16 24 34 25 40 0 42-37 40-79-11 22-30 35-61 35-53 0-70-43-70-97 0-56 18-96 73-97 30 0 46 14 59 34l2-30h47zm-90-29c32 0 41-27 41-63 0-35-9-62-40-62-32 0-39 29-40 63 0 36 9 62 39 62" id="av"/><g id="n"><use transform="matrix(0.05,0,0,0.05,0,0)" xlink:href="#ak"/><use transform="matrix(0.05,0,0,0.05,10,0)" xlink:href="#Z"/><use transform="matrix(0.05,0,0,0.05,20,0)" xlink:href="#ai"/><use transform="matrix(0.05,0,0,0.05,30,0)" xlink:href="#ah"/><use transform="matrix(0.05,0,0,0.05,37,0)" xlink:href="#an"/><use transform="matrix(0.05,0,0,0.05,47,0)" xlink:href="#au"/><use transform="matrix(0.05,0,0,0.05,57.95,0)" xlink:href="#ar"/><use transform="matrix(0.05,0,0,0.05,62.95,0)" xlink:href="#aa"/><use transform="matrix(0.05,0,0,0.05,73.9,0)" xlink:href="#av"/></g><path fill="#fafafa" d="M121-226c-27-7-43 5-38 36h38v33H83V0H34v-157H6v-33h28c-9-59 32-81 87-68v32" id="aw"/><g id="o"><use transform="matrix(0.05,0,0,0.05,0,0)" xlink:href="#aw"/><use transform="matrix(0.05,0,0,0.05,5.95,0)" xlink:href="#am"/><use transform="matrix(0.05,0,0,0.05,16.900000000000002,0)" xlink:href="#ah"/></g><g id="p"><use transform="matrix(0.05,0,0,0.05,0,0)" xlink:href="#W"/><use transform="matrix(0.05,0,0,0.05,5.95,0)" xlink:href="#au"/><use transform="matrix(0.05,0,0,0.05,16.900000000000002,0)" xlink:href="#Z"/><use transform="matrix(0.05,0,0,0.05,26.900000000000002,0)" xlink:href="#ap"/></g><g id="q"><use transform="matrix(0.05,0,0,0.05,0,0)" xlink:href="#ai"/><use transform="matrix(0.05,0,0,0.05,10,0)" xlink:href="#aa"/><use transform="matrix(0.05,0,0,0.05,20.950000000000003,0)" xlink:href="#Y"/></g><g id="r"><use transform="matrix(0.05,0,0,0.05,0,0)" xlink:href="#Z"/><use transform="matrix(0.05,0,0,0.05,10,0)" xlink:href="#aa"/><use transform="matrix(0.05,0,0,0.05,20.950000000000003,0)" xlink:href="#W"/><use transform="matrix(0.05,0,0,0.05,26.900000000000002,0)" xlink:href="#Z"/><use transform="matrix(0.05,0,0,0.05,36.900000000000006,0)" xlink:href="#ah"/><use transform="matrix(0.05,0,0,0.05,43.900000000000006,0)" xlink:href="#ar"/><use transform="matrix(0.05,0,0,0.05,48.900000000000006,0)" xlink:href="#aa"/><use transform="matrix(0.05,0,0,0.05,59.85,0)" xlink:href="#av"/></g><g id="s"><use transform="matrix(0.05,0,0,0.05,0,0)" xlink:href="#W"/><use transform="matrix(0.05,0,0,0.05,5.95,0)" xlink:href="#au"/><use transform="matrix(0.05,0,0,0.05,16.900000000000002,0)" xlink:href="#Z"/><use transform="matrix(0.05,0,0,0.05,26.900000000000002,0)" xlink:href="#ar"/><use transform="matrix(0.05,0,0,0.05,31.900000000000002,0)" xlink:href="#ah"/></g><g id="t"><use transform="matrix(0.05,0,0,0.05,0,0)" xlink:href="#an"/><use transform="matrix(0.05,0,0,0.05,10,0)" xlink:href="#am"/><use transform="matrix(0.05,0,0,0.05,20.950000000000003,0)" xlink:href="#ah"/><use transform="matrix(0.05,0,0,0.05,27.950000000000003,0)" xlink:href="#ah"/><use transform="matrix(0.05,0,0,0.05,34.95,0)" xlink:href="#Z"/><use transform="matrix(0.05,0,0,0.05,44.95,0)" xlink:href="#ak"/><use transform="matrix(0.05,0,0,0.05,54.95,0)" xlink:href="#aj"/><use transform="matrix(0.05,0,0,0.05,65.9,0)" xlink:href="#am"/><use transform="matrix(0.05,0,0,0.05,76.85000000000001,0)" xlink:href="#aa"/><use transform="matrix(0.05,0,0,0.05,87.80000000000001,0)" xlink:href="#Y"/><use transform="matrix(0.05,0,0,0.05,98.75000000000001,0)" xlink:href="#ar"/><use transform="matrix(0.05,0,0,0.05,103.75,0)" xlink:href="#aa"/><use transform="matrix(0.05,0,0,0.05,114.7,0)" xlink:href="#av"/></g><path fill="#fafafa" d="M24 0v-54h51V0H24" id="ax"/><g id="u"><use transform="matrix(0.05,0,0,0.05,0,0)" xlink:href="#aj"/><use transform="matrix(0.05,0,0,0.05,10.950000000000001,0)" xlink:href="#ai"/><use transform="matrix(0.05,0,0,0.05,20.950000000000003,0)" xlink:href="#ak"/><use transform="matrix(0.05,0,0,0.05,30.950000000000003,0)" xlink:href="#ak"/><use transform="matrix(0.05,0,0,0.05,40.95,0)" xlink:href="#al"/><use transform="matrix(0.05,0,0,0.05,54.95,0)" xlink:href="#am"/><use transform="matrix(0.05,0,0,0.05,65.9,0)" xlink:href="#ah"/><use transform="matrix(0.05,0,0,0.05,72.9,0)" xlink:href="#Y"/><use transform="matrix(0.05,0,0,0.05,83.85000000000001,0)" xlink:href="#ax"/></g><g id="v"><use transform="matrix(0.05,0,0,0.05,0,0)" xlink:href="#ag"/><use transform="matrix(0.05,0,0,0.05,12.950000000000001,0)" xlink:href="#ah"/><use transform="matrix(0.05,0,0,0.05,19.950000000000003,0)" xlink:href="#Z"/><use transform="matrix(0.05,0,0,0.05,29.950000000000003,0)" xlink:href="#ai"/><use transform="matrix(0.05,0,0,0.05,39.95,0)" xlink:href="#W"/><use transform="matrix(0.05,0,0,0.05,45.900000000000006,0)" xlink:href="#Z"/></g><g id="w"><use transform="matrix(0.05,0,0,0.05,0,0)" xlink:href="#Z"/><use transform="matrix(0.05,0,0,0.05,10,0)" xlink:href="#ao"/><use transform="matrix(0.05,0,0,0.05,15,0)" xlink:href="#Z"/><use transform="matrix(0.05,0,0,0.05,25,0)" xlink:href="#an"/><use transform="matrix(0.05,0,0,0.05,35,0)" xlink:href="#W"/><use transform="matrix(0.05,0,0,0.05,40.95,0)" xlink:href="#ar"/><use transform="matrix(0.05,0,0,0.05,45.95,0)" xlink:href="#am"/><use transform="matrix(0.05,0,0,0.05,56.900000000000006,0)" xlink:href="#aa"/><use transform="matrix(0.05,0,0,0.05,67.85000000000001,0)" xlink:href="#ak"/></g><g id="x"><use transform="matrix(0.05,0,0,0.05,0,0)" xlink:href="#ai"/><use transform="matrix(0.05,0,0,0.05,10,0)" xlink:href="#aa"/><use transform="matrix(0.05,0,0,0.05,20.950000000000003,0)" xlink:href="#Y"/></g><path fill="#fafafa" d="M128 0H69L1-190h53L99-40l48-150h52" id="ay"/><g id="y"><use transform="matrix(0.05,0,0,0.05,0,0)" xlink:href="#ay"/><use transform="matrix(0.05,0,0,0.05,10,0)" xlink:href="#am"/><use transform="matrix(0.05,0,0,0.05,20.950000000000003,0)" xlink:href="#W"/><use transform="matrix(0.05,0,0,0.05,26.900000000000002,0)" xlink:href="#Z"/></g><path fill="#fff" d="M147 0H94L2-248h55l64 206c17-72 42-137 63-206h54" id="az"/><g id="z"><use transform="matrix(0.05,0,0,0.05,0,0)" xlink:href="#az"/><use transform="matrix(0.05,0,0,0.05,10.65,0)" xlink:href="#R"/><use transform="matrix(0.05,0,0,0.05,21.6,0)" xlink:href="#M"/><use transform="matrix(0.05,0,0,0.05,27.55,0)" xlink:href="#I"/></g><g id="A"><use transform="matrix(0.05,0,0,0.05,0,0)" xlink:href="#K"/><use transform="matrix(0.05,0,0,0.05,5,0)" xlink:href="#ac"/></g><g id="B"><use transform="matrix(0.05,0,0,0.05,0,0)" xlink:href="#I"/><use transform="matrix(0.05,0,0,0.05,10,0)" xlink:href="#S"/><use transform="matrix(0.05,0,0,0.05,15,0)" xlink:href="#I"/><use transform="matrix(0.05,0,0,0.05,25,0)" xlink:href="#Q"/><use transform="matrix(0.05,0,0,0.05,35,0)" xlink:href="#M"/><use transform="matrix(0.05,0,0,0.05,40.95,0)" xlink:href="#K"/><use transform="matrix(0.05,0,0,0.05,45.95,0)" xlink:href="#R"/><use transform="matrix(0.05,0,0,0.05,56.900000000000006,0)" xlink:href="#ac"/><use transform="matrix(0.05,0,0,0.05,67.85000000000001,0)" xlink:href="#L"/></g><path fill="#fff" d="M67-125c0 53 21 87 73 88 37 1 54-22 65-47l45 17C233-25 199 4 140 4 58 4 20-42 15-125 8-235 124-281 211-232c18 10 29 29 36 50l-46 12c-8-25-30-41-62-41-52 0-71 34-72 86" id="aA"/><g id="C"><use transform="matrix(0.05,0,0,0.05,0,0)" xlink:href="#aA"/><use transform="matrix(0.05,0,0,0.05,12.950000000000001,0)" xlink:href="#N"/><use transform="matrix(0.05,0,0,0.05,19.950000000000003,0)" xlink:href="#I"/><use transform="matrix(0.05,0,0,0.05,29.950000000000003,0)" xlink:href="#U"/><use transform="matrix(0.05,0,0,0.05,39.95,0)" xlink:href="#M"/><use transform="matrix(0.05,0,0,0.05,45.900000000000006,0)" xlink:href="#I"/></g><path fill="#fff" d="M135-194c53 0 70 44 70 98 0 56-19 98-73 100-31 1-45-17-59-34 3 33 2 69 2 105H25l-1-265h48c2 10 0 23 3 31 11-24 29-35 60-35zM114-30c33 0 39-31 40-66 0-38-9-64-40-64-56 0-55 130 0 130" id="aB"/><g id="D"><use transform="matrix(0.05,0,0,0.05,0,0)" xlink:href="#aB"/><use transform="matrix(0.05,0,0,0.05,10.950000000000001,0)" xlink:href="#U"/><use transform="matrix(0.05,0,0,0.05,20.950000000000003,0)" xlink:href="#L"/><use transform="matrix(0.05,0,0,0.05,30.950000000000003,0)" xlink:href="#L"/><use transform="matrix(0.05,0,0,0.05,40.95,0)" xlink:href="#O"/><use transform="matrix(0.05,0,0,0.05,54.95,0)" xlink:href="#R"/><use transform="matrix(0.05,0,0,0.05,65.9,0)" xlink:href="#N"/><use transform="matrix(0.05,0,0,0.05,72.9,0)" xlink:href="#af"/></g><g id="E"><use transform="matrix(0.05,0,0,0.05,0,0)" xlink:href="#aB"/><use transform="matrix(0.05,0,0,0.05,10.950000000000001,0)" xlink:href="#N"/><use transform="matrix(0.05,0,0,0.05,17.950000000000003,0)" xlink:href="#R"/><use transform="matrix(0.05,0,0,0.05,28.900000000000006,0)" xlink:href="#M"/><use transform="matrix(0.05,0,0,0.05,34.85000000000001,0)" xlink:href="#I"/><use transform="matrix(0.05,0,0,0.05,44.85000000000001,0)" xlink:href="#Q"/><use transform="matrix(0.05,0,0,0.05,54.85,0)" xlink:href="#M"/><use transform="matrix(0.05,0,0,0.05,60.80000000000001,0)" xlink:href="#I"/><use transform="matrix(0.05,0,0,0.05,70.80000000000001,0)" xlink:href="#af"/></g><g id="F"><use transform="matrix(0.05,0,0,0.05,0,0)" xlink:href="#Q"/><use transform="matrix(0.05,0,0,0.05,10,0)" xlink:href="#S"/><use transform="matrix(0.05,0,0,0.05,15,0)" xlink:href="#U"/><use transform="matrix(0.05,0,0,0.05,25,0)" xlink:href="#L"/><use transform="matrix(0.05,0,0,0.05,35,0)" xlink:href="#L"/><use transform="matrix(0.05,0,0,0.05,45,0)" xlink:href="#N"/><use transform="matrix(0.05,0,0,0.05,52,0)" xlink:href="#R"/><use transform="matrix(0.05,0,0,0.05,62.95,0)" xlink:href="#R"/><use transform="matrix(0.05,0,0,0.05,73.9,0)" xlink:href="#T"/><use transform="matrix(0.05,0,0,0.05,89.9,0)" xlink:href="#L"/></g><g id="G"><use transform="matrix(0.05,0,0,0.05,0,0)" xlink:href="#Z"/><use transform="matrix(0.05,0,0,0.05,10,0)" xlink:href="#ao"/><use transform="matrix(0.05,0,0,0.05,15,0)" xlink:href="#Z"/><use transform="matrix(0.05,0,0,0.05,25,0)" xlink:href="#an"/><use transform="matrix(0.05,0,0,0.05,35,0)" xlink:href="#W"/><use transform="matrix(0.05,0,0,0.05,40.95,0)" xlink:href="#ar"/><use transform="matrix(0.05,0,0,0.05,45.95,0)" xlink:href="#am"/><use transform="matrix(0.05,0,0,0.05,56.900000000000006,0)" xlink:href="#aa"/><use transform="matrix(0.05,0,0,0.05,67.85000000000001,0)" xlink:href="#ak"/></g></defs></g></svg>