<?xml version="1.0" standalone="no"?>
<!DOCTYPE svg PUBLIC "-//W3C//DTD SVG 20010904//EN"
 "http://www.w3.org/TR/2001/REC-SVG-20010904/DTD/svg10.dtd">
<svg version="1.0" xmlns="http://www.w3.org/2000/svg"
 width="700.000000pt" height="700.000000pt" viewBox="0 0 700.000000 700.000000"
 preserveAspectRatio="xMidYMid meet">
<metadata>
Created by potrace 1.11, written by Peter Selinger 2001-2013
</metadata>
<g transform="translate(0.000000,700.000000) scale(0.100000,-0.100000)"
fill="#000000" stroke="none">
<path d="M1405 6123 c-77 -11 -140 -30 -205 -61 -146 -70 -272 -229 -311 -392
-20 -84 -21 -4212 -1 -4320 41 -227 220 -407 463 -466 13 -4 969 -7 2124 -8
2132 -2 2186 -1 2260 33 114 52 147 73 211 136 80 80 122 149 155 256 l23 74
0 2120 c0 1712 -2 2131 -13 2175 -51 215 -234 396 -446 441 -48 10 -485 13
-2150 14 -1149 0 -2099 -1 -2110 -2z m2385 -2623 l0 -1458 -290 1 -290 0 0
1458 0 1458 290 0 290 0 0 -1459z m-1173 576 c4 -4 8 -463 8 -1020 l0 -1013
-290 1 -290 1 -1 1015 c-1 558 2 1017 6 1020 13 8 559 5 567 -4z m2340 -1448
l-2 -583 -290 0 -290 0 -1 570 c0 314 2 576 4 583 3 9 71 12 292 12 l288 0 -1
-582z"/>
</g>
</svg>
